<?xml version="1.0" standalone="no"?>
<!DOCTYPE svg PUBLIC "-//W3C//DTD SVG 20010904//EN"
 "http://www.w3.org/TR/2001/REC-SVG-20010904/DTD/svg10.dtd">
<svg version="1.0" xmlns="http://www.w3.org/2000/svg"
 width="674.000000pt" height="674.000000pt" viewBox="0 0 674.000000 674.000000"
 preserveAspectRatio="xMidYMid meet">
<metadata>
Created by potrace 1.11, written by Peter Selinger 2001-2013
</metadata>
<g transform="translate(0.000000,674.000000) scale(0.100000,-0.100000)"
fill="#000000" stroke="none">
<path d="M2663 5055 l-35 -35 21 -34 21 -33 -85 -78 -86 -78 -55 62 c-63 69
-95 78 -132 38 -27 -29 -28 -57 -2 -87 24 -27 25 -36 6 -47 -8 -4 -51 -42 -97
-83 -46 -41 -110 -99 -144 -129 -33 -30 -62 -57 -65 -60 -6 -7 -84 -77 -175
-158 -39 -33 -96 -85 -128 -115 l-58 -54 14 -42 15 -42 -79 -72 -79 -73 19
-42 c11 -23 16 -43 11 -45 -9 -3 -136 -117 -229 -206 -51 -49 -53 -52 -21 -36
27 13 136 103 200 164 75 71 76 72 107 57 29 -15 29 -15 103 52 l74 68 49 -23
c46 -21 50 -21 66 -6 10 10 35 33 57 52 46 41 141 126 204 184 25 23 108 97
185 166 77 69 145 130 150 135 6 6 25 23 43 39 l32 30 31 -32 c17 -18 39 -32
49 -32 24 0 66 35 73 61 5 20 -1 28 -90 128 -16 18 -19 27 -10 35 7 6 45 42
85 80 69 67 73 69 91 52 12 -11 27 -15 40 -11 21 6 71 60 71 76 0 17 -170 197
-192 202 -15 4 -30 -3 -55 -28z m79 -17 c17 -21 47 -53 125 -139 l24 -26 -27
-26 -27 -27 -26 28 c-14 15 -24 30 -23 35 4 12 -5 8 -19 -10 -12 -14 -12 -16
0 -8 10 5 12 4 7 -4 -4 -6 -15 -10 -24 -9 -9 2 -22 -8 -29 -23 -7 -15 -21 -33
-30 -40 -14 -11 -14 -8 2 11 l20 25 -23 -19 c-13 -11 -20 -26 -17 -34 5 -12 3
-13 -10 -2 -13 11 -14 10 -10 -3 4 -10 1 -15 -11 -14 -9 1 -19 -5 -21 -13 -4
-13 -3 -13 6 0 6 8 11 11 11 6 0 -18 -31 -44 -48 -39 -9 3 -30 21 -46 40 l-30
35 60 55 c32 30 74 66 92 80 37 29 40 43 12 68 -26 23 -25 40 2 59 30 21 37
20 60 -6z m-326 -182 c73 -83 179 -200 226 -250 26 -28 48 -59 48 -69 0 -22
-23 -47 -43 -47 -12 0 -120 111 -243 249 -21 25 -51 58 -66 75 -33 36 -33 36
-8 64 29 31 42 28 86 -22z m327 -21 c-3 -9 -8 -14 -10 -11 -3 3 -2 9 2 15 9
16 15 13 8 -4z m-325 -145 c86 -95 119 -136 105 -126 -7 4 -13 2 -13 -3 0 -11
15 -15 35 -11 5 1 1 -8 -10 -20 -11 -12 -21 -17 -23 -11 -2 6 -8 9 -12 6 -5
-3 -7 -12 -3 -20 3 -8 1 -15 -3 -15 -5 0 -29 -19 -54 -41 -25 -23 -65 -60 -89
-83 -25 -22 -39 -33 -32 -23 9 11 10 17 3 17 -11 0 -40 -44 -31 -46 2 -1 -10
-13 -27 -27 -19 -16 -35 -23 -43 -17 -11 6 -10 10 4 17 16 9 15 12 -7 29 -13
10 -50 49 -82 87 -33 37 -62 67 -65 67 -3 0 -28 -21 -56 -46 -27 -25 -86 -78
-130 -117 -186 -167 -180 -160 -165 -197 12 -28 81 -105 121 -135 20 -14 52
-19 44 -6 -4 7 1 8 12 4 16 -6 17 -5 3 12 -8 10 -10 16 -4 12 7 -4 15 0 18 9
3 8 9 13 14 10 4 -2 18 11 31 29 14 21 28 32 37 28 9 -3 14 0 12 8 -2 8 3 13
10 11 6 -1 12 3 12 9 0 12 31 45 39 42 3 -2 6 1 6 7 0 5 11 17 25 27 14 9 36
28 50 40 14 13 28 23 32 23 5 0 8 8 9 18 0 10 3 12 6 4 2 -6 9 -10 14 -6 5 3
9 0 9 -5 0 -6 -7 -11 -15 -11 -8 0 -14 -4 -13 -8 5 -13 -71 -74 -82 -67 -7 4
-10 0 -8 -11 2 -11 -2 -18 -9 -17 -7 2 -17 -6 -23 -17 -6 -11 -15 -18 -21 -15
-5 4 -9 1 -9 -4 0 -16 -61 -71 -78 -71 -9 0 -12 -6 -8 -16 3 -8 2 -12 -4 -9
-6 3 -10 1 -10 -4 0 -6 -7 -11 -16 -11 -8 0 -13 -4 -9 -10 3 -5 -9 -17 -26
-26 -24 -12 -34 -13 -39 -4 -4 6 -11 12 -16 12 -22 1 -51 18 -78 44 -30 30
-76 114 -76 137 0 8 39 50 87 93 47 44 101 93 118 109 18 17 46 41 63 55 16
14 67 59 113 101 235 214 284 258 289 258 3 1 33 -31 68 -69z m-314 -292 c-3
-4 -1 -7 5 -6 15 4 104 -96 91 -100 -6 -2 -26 -19 -44 -38 -18 -19 -36 -31
-39 -27 -4 3 -7 -1 -7 -11 0 -9 -4 -15 -8 -12 -5 3 -16 -6 -26 -19 -10 -14
-23 -22 -28 -19 -4 3 -7 0 -6 -7 2 -6 -3 -14 -11 -17 -9 -3 -11 0 -6 8 5 9 4
11 -4 6 -6 -4 -9 -11 -6 -16 6 -10 -63 -76 -76 -73 -5 2 -8 -3 -6 -10 1 -6 -6
-11 -15 -11 -11 1 -14 -4 -10 -14 4 -11 1 -14 -12 -9 -9 4 -15 3 -12 -2 3 -5
-1 -14 -8 -21 -19 -15 -60 5 -52 25 3 9 0 12 -9 9 -17 -7 -58 37 -76 80 -12
27 -11 30 37 72 27 24 64 57 82 74 17 17 32 28 32 24 0 -4 9 5 21 20 11 14 25
24 30 20 5 -3 8 -1 7 4 -4 12 83 91 100 92 7 0 11 4 8 9 -4 5 0 11 6 14 15 5
50 -32 42 -45z m-404 -355 c0 -5 14 -24 30 -43 30 -35 37 -50 23 -50 -5 0 -34
-25 -67 -55 -32 -30 -61 -55 -65 -55 -12 1 -38 25 -56 54 l-19 29 69 63 c67
61 85 73 85 57z"/>
<path d="M2600 4719 c0 -5 5 -7 10 -4 6 3 10 8 10 11 0 2 -4 4 -10 4 -5 0 -10
-5 -10 -11z"/>
<path d="M2320 4639 c0 -6 22 -37 49 -68 26 -31 46 -62 44 -69 -3 -6 -8 -10
-13 -7 -11 7 -42 -24 -35 -36 4 -5 1 -9 -6 -9 -8 0 -8 -4 -1 -13 8 -10 6 -13
-11 -14 -12 -1 -17 1 -12 5 6 4 11 12 10 17 0 13 -97 125 -107 125 -19 0 -4
-29 42 -79 l49 -54 -25 -19 c-13 -11 -21 -24 -18 -29 4 -6 11 -6 19 1 16 13
35 5 35 -13 0 -7 -4 -6 -10 3 -9 13 -11 13 -20 0 -8 -12 -24 -1 -86 63 l-77
79 -20 -21 -21 -21 24 -27 c14 -16 40 -44 58 -65 19 -20 32 -40 28 -46 -3 -5
3 -17 14 -27 16 -15 18 -21 8 -34 -7 -9 1 -5 17 9 17 14 32 27 35 29 3 2 -3 1
-12 -2 -12 -4 -15 -2 -11 8 3 8 9 12 14 9 5 -3 9 2 9 10 0 9 6 17 13 18 6 0
17 2 23 2 18 2 170 146 155 146 -11 0 -9 4 4 14 11 8 26 11 35 9 8 -3 5 2 -7
11 -13 10 -23 23 -23 31 0 10 -7 8 -23 -8 -13 -12 -22 -25 -20 -29 2 -5 0 -8
-6 -8 -5 0 -11 4 -13 8 -6 17 -92 112 -100 112 -4 0 -8 -5 -8 -11z m175 -88
c3 -6 -3 -14 -12 -20 -10 -5 -18 -16 -18 -24 0 -7 -26 -38 -58 -67 -47 -43
-60 -50 -72 -40 -12 10 -19 10 -32 -1 -16 -11 -16 -11 -5 1 7 8 27 15 45 15
25 0 31 4 29 18 -2 9 2 17 8 17 5 0 10 5 10 11 0 5 -6 7 -12 3 -9 -5 -9 -3 1
9 7 9 17 14 22 12 4 -3 13 4 19 15 6 11 14 19 18 16 4 -2 13 2 20 10 7 8 10
14 7 14 -3 0 -3 5 0 10 8 13 22 13 30 1z m-250 -231 c10 -11 16 -20 13 -20 -3
0 -13 9 -23 20 -10 11 -16 20 -13 20 3 0 13 -9 23 -20z"/>
<path d="M2422 4490 c-7 -12 -18 -18 -24 -14 -7 4 -8 3 -4 -5 4 -6 2 -20 -4
-29 -7 -9 0 -3 16 13 16 17 34 31 39 32 5 1 11 7 13 15 3 10 2 10 -6 -1 -6 -9
-11 -10 -13 -2 -2 6 -10 2 -17 -9z"/>
<path d="M2142 4200 c-42 -39 -30 -39 15 0 18 17 30 30 26 30 -4 0 -23 -14
-41 -30z"/>
<path d="M1976 4053 c-6 -14 -5 -15 5 -6 7 7 10 15 7 18 -3 3 -9 -2 -12 -12z"/>
<path d="M2037 4393 c3 -10 3 -15 -1 -12 -4 4 -27 -13 -52 -37 -25 -25 -50
-42 -55 -38 -5 3 -8 1 -7 -4 4 -14 -86 -99 -100 -94 -7 2 -12 0 -10 -5 1 -4
-3 -17 -9 -29 -8 -14 -8 -25 -1 -35 8 -11 9 -10 4 5 -4 13 -2 17 7 13 7 -3 19
4 26 14 6 11 17 17 24 13 7 -4 9 -4 5 1 -4 4 -1 14 7 21 17 17 29 18 19 2 -4
-7 -3 -8 5 -4 6 4 9 11 7 15 -8 12 61 74 73 66 7 -3 10 -1 9 6 -2 7 8 18 22
26 15 7 19 13 10 14 -10 0 -8 4 5 10 12 6 27 20 34 31 11 17 10 22 -1 29 -21
14 -28 11 -21 -8z"/>
<path d="M2079 4383 c0 -5 -2 -16 -4 -26 -2 -11 -1 -16 3 -13 8 8 14 46 7 46
-3 0 -5 -3 -6 -7z"/>
<path d="M2109 4363 c-13 -16 -12 -17 4 -4 16 13 21 21 13 21 -2 0 -10 -8 -17
-17z"/>
<path d="M2114 4328 c-19 -23 -19 -23 2 -5 11 9 24 14 29 10 4 -5 5 -2 1 5 -9
16 -10 16 -32 -10z"/>
<path d="M2131 4306 c-9 -10 -8 -15 2 -19 8 -3 13 3 13 14 0 23 0 23 -15 5z"/>
<path d="M2013 4293 c0 -8 4 -9 12 -3 11 10 33 9 51 -2 6 -4 11 -2 11 5 0 8
-15 13 -37 13 -24 0 -37 -4 -37 -13z"/>
<path d="M2114 4273 c16 -20 36 -23 36 -6 0 4 -3 3 -7 0 -3 -4 -16 1 -27 10
-21 18 -21 18 -2 -4z"/>
<path d="M1953 4258 c-3 -6 -1 -8 5 -4 5 3 13 0 15 -6 4 -10 6 -10 6 0 1 8 6
10 14 6 6 -4 8 -3 4 1 -12 13 -36 15 -44 3z"/>
<path d="M2010 4261 c0 -6 4 -13 10 -16 6 -3 7 1 4 9 -7 18 -14 21 -14 7z"/>
<path d="M2070 4236 c7 -7 13 -7 20 0 6 6 3 10 -10 10 -13 0 -16 -4 -10 -10z"/>
<path d="M1985 4200 c-3 -6 1 -7 9 -4 18 7 21 14 7 14 -6 0 -13 -4 -16 -10z"/>
<path d="M1997 4171 c-10 -14 -10 -14 4 -4 9 7 18 10 21 7 3 -3 8 -1 12 4 9
16 -24 9 -37 -7z"/>
<path d="M1765 4162 c-5 -4 -11 -14 -13 -22 -2 -8 0 -12 4 -8 4 4 14 2 23 -5
14 -10 14 -10 3 5 -8 9 -11 22 -7 28 7 12 4 13 -10 2z"/>
<path d="M1873 4153 c0 -9 4 -10 14 -2 7 6 13 12 13 14 0 1 -6 2 -13 2 -8 0
-14 -6 -14 -14z"/>
<path d="M1940 4164 c0 -1 6 -7 14 -13 10 -9 15 -8 19 2 3 8 -3 13 -14 13 -11
0 -19 -1 -19 -2z"/>
<path d="M1840 4146 c0 -2 8 -10 18 -17 15 -13 16 -12 3 4 -13 16 -21 21 -21
13z"/>
<path d="M1920 4146 c0 -2 8 -10 18 -17 15 -13 16 -12 3 4 -13 16 -21 21 -21
13z"/>
<path d="M1979 4133 c-13 -16 -12 -17 4 -4 9 7 17 15 17 17 0 8 -8 3 -21 -13z"/>
<path d="M1907 4119 c7 -7 15 -10 18 -7 3 3 -2 9 -12 12 -14 6 -15 5 -6 -5z"/>
<path d="M1953 4093 c0 -9 4 -10 14 -2 7 6 13 12 13 14 0 1 -6 2 -13 2 -8 0
-14 -6 -14 -14z"/>
<path d="M1815 4069 c-4 -6 -14 -8 -22 -5 -8 3 -11 2 -8 -3 8 -14 42 -9 42 6
0 16 -4 16 -12 2z"/>
<path d="M1854 4026 c1 -8 5 -18 8 -22 4 -3 5 1 4 10 -1 8 -5 18 -8 22 -4 3
-5 -1 -4 -10z"/>
<path d="M2060 3568 c-120 -15 -218 -84 -263 -186 -29 -66 -36 -106 -37 -218
l0 -82 -52 0 c-29 0 -65 0 -80 -1 l-28 -1 0 -95 0 -95 80 0 80 0 0 -380 0
-380 115 0 c85 0 115 3 116 13 1 6 2 176 3 377 l1 365 131 3 132 3 0 94 c1 91
0 95 -21 96 -12 0 -71 1 -132 2 l-110 2 1 75 c0 41 4 91 7 110 9 45 46 88 87
100 27 8 141 7 205 -2 19 -3 20 3 21 77 0 44 -2 85 -4 92 -8 24 -161 43 -252
31z"/>
<path d="M1220 3422 l0 -127 118 1 c64 1 119 2 122 3 3 0 5 56 5 124 l0 122
-123 3 -122 2 0 -128z"/>
<path d="M3395 3532 l-30 -3 1 -702 c1 -386 2 -704 3 -707 0 -3 178 -6 394 -5
l392 0 3 63 3 63 -318 -1 c-175 -1 -324 -1 -330 -1 -10 1 -13 141 -15 647 l-3
647 -35 1 c-19 1 -49 0 -65 -2z"/>
<path d="M4330 3493 c-51 -20 -72 -80 -46 -131 28 -54 98 -61 148 -15 27 24
24 94 -5 121 -24 23 -72 35 -97 25z"/>
<path d="M193 3440 c-18 -5 -19 -33 -18 -655 l0 -650 428 -2 427 -2 0 102 0
102 -301 0 c-165 0 -303 3 -306 8 -3 5 -5 253 -4 553 0 418 -3 544 -12 545
-55 4 -200 3 -214 -1z"/>
<path d="M2685 3098 c-221 -40 -368 -253 -359 -523 4 -151 43 -254 124 -336
50 -50 153 -105 216 -115 21 -3 42 -8 46 -10 17 -11 210 -3 293 11 121 21 145
31 146 64 2 49 0 153 -3 156 -2 1 -43 -8 -93 -20 -70 -18 -114 -23 -196 -21
-96 1 -112 4 -165 31 -63 33 -108 90 -124 159 -7 32 -6 37 14 40 11 3 147 4
302 4 154 -1 286 2 293 6 15 10 13 135 -5 225 -31 162 -108 261 -240 311 -62
23 -175 31 -249 18z m162 -195 c44 -20 80 -75 92 -136 l8 -47 -183 0 c-178 0
-184 1 -184 20 0 53 47 125 105 161 38 24 115 25 162 2z"/>
<path d="M1229 3035 c0 -56 0 -886 1 -897 0 -5 52 -8 115 -8 85 0 115 3 116
13 1 15 1 895 0 922 -1 19 -8 20 -116 20 l-115 0 -1 -50z"/>
<path d="M5090 3063 c-86 -14 -186 -72 -226 -133 -15 -22 -29 -39 -31 -37 -3
4 -5 32 -12 137 -1 13 -41 17 -113 11 -4 -1 -5 -43 -3 -93 2 -51 4 -260 4
-463 l1 -371 60 0 60 0 1 46 c0 25 1 151 3 280 4 284 15 335 94 418 65 70 126
96 223 96 100 -1 152 -29 193 -105 34 -61 37 -94 39 -479 l2 -255 50 -1 c28 0
55 3 60 7 7 5 10 119 9 336 -1 308 -3 332 -23 396 -30 92 -101 167 -181 192
-54 16 -160 25 -210 18z"/>
<path d="M6110 3063 c-103 -17 -219 -82 -281 -158 -159 -197 -139 -536 41
-699 89 -81 207 -118 352 -112 105 5 183 28 251 75 43 29 117 105 117 119 0 4
-18 22 -40 40 l-41 34 -59 -55 c-142 -132 -352 -142 -486 -25 -59 52 -105 142
-118 229 l-5 36 372 1 c205 0 380 1 390 1 17 1 18 9 16 84 -8 207 -113 356
-294 414 -41 14 -171 23 -215 16z m156 -117 c61 -13 139 -70 183 -134 23 -33
57 -140 47 -149 -3 -4 -523 -7 -633 -4 -21 1 -22 2 -9 46 56 185 223 282 412
241z"/>
<path d="M4318 3042 c-17 -3 -18 -33 -18 -466 l0 -462 54 1 c30 0 58 3 62 7 8
8 10 905 2 913 -6 6 -79 11 -100 7z"/>
<path d="M872 1979 c-62 -13 -102 -68 -97 -136 6 -72 37 -104 115 -116 37 -6
95 15 104 39 9 23 -31 38 -57 22 -12 -8 -28 -13 -34 -12 -7 1 -17 2 -23 3 -21
3 -50 46 -50 75 1 59 53 95 101 70 22 -11 29 -11 45 1 17 12 18 15 4 30 -22
22 -69 33 -108 24z"/>
<path d="M1177 1980 c-51 -9 -85 -45 -95 -101 -19 -102 73 -181 170 -147 42
15 55 35 35 55 -13 13 -21 14 -39 6 -44 -21 -57 -22 -81 -3 -48 38 -42 106 11
134 25 13 32 13 57 0 21 -11 31 -11 41 -3 20 17 17 34 -8 46 -37 18 -51 20
-91 13z"/>
<path d="M2691 1964 c-80 -49 -80 -182 0 -225 29 -15 96 -15 131 -1 38 15 68
68 68 117 0 104 -107 163 -199 109z m138 -77 c21 -56 -24 -120 -77 -111 -41 7
-64 40 -60 88 3 35 8 43 37 58 31 15 37 15 63 2 16 -8 33 -25 37 -37z"/>
<path d="M3564 1974 c-69 -24 -99 -94 -73 -168 20 -55 56 -80 119 -79 82 0
130 47 130 128 0 98 -80 152 -176 119z m102 -66 c25 -26 23 -83 -2 -109 -23
-23 -76 -28 -98 -10 -26 22 -35 64 -20 99 21 52 83 62 120 20z"/>
<path d="M168 1973 c-3 -4 16 -61 41 -126 42 -108 48 -117 70 -115 25 3 39 29
99 191 l22 57 -28 0 c-26 0 -30 -6 -57 -79 -17 -44 -32 -77 -35 -74 -3 2 -17
37 -31 76 -22 61 -30 72 -52 75 -14 2 -27 0 -29 -5z"/>
<path d="M537 1953 c-8 -15 -26 -55 -40 -88 -14 -33 -32 -77 -41 -97 l-16 -38
29 0 c23 0 33 7 43 27 11 22 20 28 50 28 44 2 51 -2 67 -32 13 -25 61 -33 61
-10 0 6 -22 62 -48 122 -38 86 -53 111 -69 113 -16 2 -26 -5 -36 -25z m47 -85
c9 -35 8 -38 -14 -38 -20 0 -25 15 -14 44 9 23 21 20 28 -6z"/>
<path d="M1390 1855 l0 -126 28 3 27 3 0 120 0 120 -27 3 -28 3 0 -126z"/>
<path d="M1567 1973 c-3 -5 -5 -61 -6 -126 l-1 -118 28 3 c26 3 27 4 28 78 1
41 2 77 3 80 0 2 24 -33 52 -78 47 -77 52 -82 85 -82 l35 0 -3 123 -3 122 -27
3 -27 3 -3 -77 -3 -78 -38 62 c-21 34 -45 68 -53 77 -16 16 -59 21 -67 8z"/>
<path d="M1906 1971 c-2 -3 -4 -59 -4 -123 l0 -118 89 0 c89 0 89 0 87 25 -2
24 -6 25 -60 25 -55 0 -58 1 -58 25 0 23 3 25 49 25 36 0 50 4 55 17 10 24 -7
35 -56 37 -37 1 -43 4 -46 24 -4 23 -1 24 52 20 55 -3 56 -3 56 24 l0 27 -80
-1 c-45 -1 -82 -4 -84 -7z"/>
<path d="M2359 1975 c0 -3 -1 -54 -1 -115 0 -60 1 -114 1 -120 1 -5 12 -10 26
-10 23 0 25 3 25 50 0 28 5 50 10 50 6 0 22 -22 38 -50 21 -40 32 -50 53 -50
39 0 41 9 9 56 l-30 43 25 25 c30 30 32 65 7 97 -16 19 -30 23 -90 25 -40 2
-72 1 -73 -1z m116 -70 c0 -15 -8 -21 -32 -23 -30 -3 -33 -1 -33 23 0 24 3 26
33 23 24 -2 32 -8 32 -23z"/>
<path d="M2999 1978 c-1 -2 -2 -58 -3 -125 l-2 -123 78 0 c77 0 78 0 78 25 0
23 -3 25 -50 25 l-50 0 0 100 0 100 -25 0 c-14 0 -26 -1 -26 -2z"/>
<path d="M3248 1968 c-2 -7 -4 -62 -4 -123 l1 -110 78 -3 c77 -3 78 -2 75 20
-3 20 -10 23 -50 26 -42 3 -48 6 -49 25 0 12 -1 56 -2 97 -2 68 -4 75 -23 78
-12 2 -23 -3 -26 -10z"/>
<path d="M3846 1971 c-8 -16 2 -178 13 -198 22 -43 87 -61 132 -37 50 25 60
52 58 153 l-1 92 -27 -3 c-25 -3 -26 -5 -28 -78 -1 -41 -5 -85 -8 -96 -6 -28
-38 -36 -64 -17 -19 12 -21 25 -21 102 0 88 0 89 -25 89 -14 0 -27 -3 -29 -7z"/>
<path d="M4140 1954 c0 -21 5 -24 35 -24 l35 0 0 -101 0 -100 28 3 c27 3 27 3
28 88 1 47 2 91 3 98 0 7 15 12 36 12 30 0 35 3 35 23 0 23 -2 23 -100 24
-100 2 -100 1 -100 -23z"/>
<path d="M4609 1979 c-1 -2 -2 -59 -3 -126 l-1 -123 27 0 c27 0 28 2 28 50 l0
50 38 0 c50 0 82 29 82 74 0 49 -27 68 -105 73 -36 3 -66 4 -66 2z m109 -62
c15 -18 0 -38 -32 -41 -23 -3 -26 0 -26 25 0 24 4 29 24 29 13 0 28 -6 34 -13z"/>
<path d="M4885 1966 c-3 -6 -3 -60 -2 -121 l2 -110 78 -3 c77 -3 78 -2 75 20
-3 20 -10 23 -50 26 l-48 3 -1 42 c-3 157 -2 152 -27 153 -13 1 -25 -4 -27
-10z"/>
<path d="M5201 1957 c-5 -12 -27 -64 -50 -115 -23 -51 -41 -97 -41 -102 0 -6
14 -10 30 -10 19 0 30 5 30 14 0 26 27 42 66 41 32 0 41 -6 52 -28 10 -20 20
-27 42 -27 34 0 36 -9 -27 139 -41 98 -45 104 -73 108 -14 2 -23 -5 -29 -20z
m43 -83 c11 -29 6 -44 -14 -44 -22 0 -23 3 -14 38 7 26 19 29 28 6z"/>
<path d="M5449 1951 c0 -17 0 -60 0 -96 0 -129 -1 -125 26 -125 27 0 27 0 27
113 0 56 0 56 61 -40 41 -64 50 -73 77 -73 17 0 30 5 30 13 1 6 1 61 2 121 l1
110 -27 3 -26 4 0 -83 0 -83 -53 80 c-45 69 -56 80 -84 83 -31 3 -33 1 -34
-27z"/>
<path d="M5790 1855 l0 -125 25 0 c28 0 27 -2 26 94 -1 39 0 68 3 65 2 -2 27
-39 56 -81 45 -68 55 -78 81 -78 32 0 30 -4 30 115 0 138 1 137 -23 133 -21
-3 -23 -9 -26 -81 l-3 -79 -52 81 c-47 74 -55 81 -84 81 l-33 0 0 -125z"/>
<path d="M6130 1855 l0 -126 87 3 c82 3 86 4 88 26 2 20 -2 22 -57 22 -32 0
-58 3 -59 8 0 4 -2 15 -4 25 -3 14 5 17 50 17 48 0 53 2 57 25 6 27 -1 29 -68
25 -19 -1 -33 4 -37 13 -9 24 6 35 48 35 66 0 67 1 63 25 -3 20 -9 22 -85 25
l-83 3 0 -126z"/>
<path d="M6410 1855 l0 -126 27 3 c26 3 28 6 26 51 -3 61 14 61 47 -1 21 -40
30 -47 59 -50 l34 -3 -32 55 c-17 31 -26 56 -20 56 19 0 38 33 39 66 0 48 -28
66 -110 71 l-70 4 0 -126z m117 64 c20 -20 3 -39 -33 -39 -30 0 -34 3 -34 25
0 21 5 25 28 25 15 0 33 -5 39 -11z"/>
</g>
</svg>
